<?xml version="1.0" encoding="UTF-8"?>
<svg id="Capa_1" xmlns="http://www.w3.org/2000/svg" viewBox="0 0 1344.8 466.4">
  <defs>
    <style>
      .cls-1 {
        fill: #fff;
        stroke: #fff;
        stroke-miterlimit: 10;
      }
    </style>
  </defs>
  <g>
    <path class="cls-1" d="M133.64,160.49c0-17.64,10.08-28.41,26.34-28.41s26.34,10.77,26.34,28.41v75.6c0,49.94-33.9,67.81-79.26,67.81s-79.26-17.87-79.26-67.81v-75.6c0-17.64,10.08-28.41,26.34-28.41s26.34,10.77,26.34,28.41v75.14c0,17.18,8.02,28.4,26.57,28.4s26.57-11.22,26.57-28.4v-75.14Z"/>
    <path class="cls-1" d="M324.91,157.51c0-15.35,9.62-26.34,25.66-26.34s25.66,11,25.66,26.34v121.18c0,18.1-13.06,25.2-29.78,25.2-13.97,0-21.53-3.89-31.61-20.62l-43.75-71.93h-.46v65.06c0,17.64-9.16,27.49-25.66,27.49s-25.66-9.85-25.66-27.49v-117.06c0-17.87,10.31-28.18,30.24-28.18,12.6,0,21.99,4.81,28.63,16.03l46.27,79.26h.46v-68.95Z"/>
    <path class="cls-1" d="M411.26,160.49c0-17.64,10.08-28.41,26.34-28.41s26.34,10.77,26.34,28.41v114.08c0,17.64-10.08,28.41-26.34,28.41s-26.34-10.77-26.34-28.41v-114.08Z"/>
    <path class="cls-1" d="M569.78,240.89l-35.05-10.08c-26.34-7.56-40.78-23.14-40.78-46.27,0-27.49,18.33-53.38,64.14-53.38,30.47,0,69.87,7.33,69.87,35.05,0,12.83-9.85,20.85-22.91,20.85-17.64,0-17.87-20.16-43.98-20.16-8.93,0-17.18,3.44-17.18,11s6.41,10.54,17.64,13.52l27.26,7.33c27.72,7.56,46.73,20.39,46.73,49.02,0,39.17-33.67,56.12-68.49,56.12-55.44,0-72.39-24.74-72.39-39.63,0-12.83,9.39-21.53,22.22-21.53,18.78,0,21.07,24.05,46.96,24.05,10.77,0,20.39-3.66,20.39-13.74,0-6.64-4.81-9.39-14.43-12.14Z"/>
    <path class="cls-1" d="M665.52,160.49c0-17.64,10.08-28.41,26.34-28.41s26.34,10.77,26.34,28.41v114.08c0,17.64-10.08,28.41-26.34,28.41s-26.34-10.77-26.34-28.41v-114.08Z"/>
    <path class="cls-1" d="M866.42,154.07c4.35-16.26,11.23-21.99,27.95-21.99h14.89c18.1,0,27.49,11.68,27.49,28.64v118.66c0,15.81-9.39,23.6-23.6,23.6s-23.59-7.79-23.59-23.6v-80.18h-.46l-23.83,89.11c-2.98,11.22-8.25,14.66-20.85,14.66s-17.87-3.44-20.85-14.66l-23.82-89.11h-.46v80.18c0,15.81-9.39,23.6-23.6,23.6s-23.59-7.79-23.59-23.6v-118.66c0-16.95,9.39-28.64,27.49-28.64h14.89c16.72,0,23.59,5.73,27.95,21.99l21.76,81.78h.46l21.76-81.78Z"/>
    <path class="cls-1" d="M1047.84,131.17c43.75,0,85.22,28.63,85.22,86.36s-41.01,86.36-85.22,86.36-85.22-26.57-85.22-86.36,41.46-86.36,85.22-86.36ZM1047.84,172.4c-21.99,0-32.53,18.33-32.53,45.13s10.54,45.13,32.53,45.13,32.53-18.33,32.53-45.13-10.54-45.13-32.53-45.13ZM1054.25,82.14c7.79-6.64,10.54-7.56,15.12-7.56,6.41,0,14.43,5.96,14.43,13.97,0,4.81-2.29,8.7-6.41,12.14l-19.01,16.26c-7.79,6.64-10.54,7.56-15.12,7.56-6.41,0-14.43-5.96-14.43-13.97,0-4.81,2.29-8.7,6.41-12.14l19.01-16.26Z"/>
    <path class="cls-1" d="M1265.68,157.51c0-15.35,9.62-26.34,25.66-26.34s25.66,11,25.66,26.34v121.18c0,18.1-13.06,25.2-29.78,25.2-13.97,0-21.53-3.89-31.61-20.62l-43.75-71.93h-.46v65.06c0,17.64-9.16,27.49-25.66,27.49s-25.66-9.85-25.66-27.49v-117.06c0-17.87,10.31-28.18,30.24-28.18,12.6,0,21.99,4.81,28.63,16.03l46.27,79.26h.46v-68.95Z"/>
  </g>
  <g>
    <path class="cls-1" d="M32.09,326.62h16.25c3.05,0,6.09.18,9.11.54,3.02.36,5.73,1.14,8.13,2.33,2.39,1.2,4.34,2.95,5.84,5.25,1.5,2.3,2.25,5.43,2.25,9.38,0,4.67-1.41,8.44-4.22,11.31-2.81,2.87-6.71,4.7-11.67,5.48l18.05,29.27h-9.25l-17.24-28.56h-9.7v28.56h-7.54v-63.58ZM39.64,354.64h6.73c2.1,0,4.27-.06,6.51-.18,2.25-.12,4.31-.51,6.2-1.17,1.89-.66,3.44-1.69,4.67-3.1,1.23-1.41,1.84-3.43,1.84-6.06,0-2.27-.45-4.1-1.35-5.48-.9-1.38-2.08-2.44-3.55-3.19-1.47-.75-3.11-1.24-4.94-1.48-1.83-.24-3.67-.36-5.52-.36h-10.6v21.01Z"/>
    <path class="cls-1" d="M161.49,326.62h7.09l27.03,63.58h-8.8l-6.47-15.62h-31.79l-6.56,15.62h-8.53l28.02-63.58ZM164.9,336.32h-.18l-13.2,31.25h25.95l-12.57-31.25Z"/>
    <path class="cls-1" d="M256.77,326.62h24.43c2.09,0,4.31.24,6.64.72,2.34.48,4.65,1.24,6.96,2.29,2.3,1.05,4.52,2.41,6.64,4.09,2.12,1.68,4,3.7,5.61,6.06,1.62,2.37,2.9,5.09,3.86,8.17.96,3.08,1.44,6.57,1.44,10.46s-.48,7.38-1.44,10.46c-.96,3.08-2.25,5.81-3.86,8.17-1.62,2.37-3.49,4.39-5.61,6.06-2.12,1.68-4.34,3.04-6.64,4.09-2.3,1.05-4.62,1.81-6.96,2.29-2.33.48-4.55.72-6.64.72h-24.43v-63.58ZM264.31,383.19h14.37c3.65,0,7.03-.48,10.15-1.44,3.11-.96,5.81-2.44,8.08-4.45,2.27-2,4.07-4.56,5.39-7.68,1.32-3.11,1.98-6.85,1.98-11.23s-.66-8.11-1.98-11.22c-1.32-3.11-3.11-5.67-5.39-7.68-2.28-2.01-4.97-3.49-8.08-4.45-3.11-.96-6.5-1.44-10.15-1.44h-14.37v49.57Z"/>
    <path class="cls-1" d="M378.35,326.62h7.54v63.58h-7.54v-63.58Z"/>
    <path class="cls-1" d="M485.12,391.81c-4.85,0-9.29-.84-13.34-2.51-4.04-1.67-7.54-4-10.51-6.96-2.96-2.96-5.27-6.5-6.91-10.6-1.65-4.1-2.47-8.55-2.47-13.34s.82-9.23,2.47-13.33c1.65-4.1,3.95-7.63,6.91-10.6,2.96-2.96,6.47-5.28,10.51-6.96,4.04-1.68,8.49-2.51,13.34-2.51s9.29.84,13.34,2.51,7.54,4,10.51,6.96c2.96,2.96,5.27,6.5,6.91,10.6,1.65,4.1,2.47,8.55,2.47,13.33s-.82,9.24-2.47,13.34c-1.65,4.1-3.95,7.63-6.91,10.6-2.96,2.96-6.47,5.28-10.51,6.96-4.04,1.68-8.49,2.51-13.34,2.51ZM485.12,384.81c3.71,0,7.11-.69,10.19-2.07,3.08-1.38,5.73-3.26,7.95-5.66,2.21-2.39,3.94-5.19,5.16-8.4,1.23-3.2,1.84-6.63,1.84-10.28s-.61-7.08-1.84-10.28c-1.23-3.2-2.95-6-5.16-8.4-2.21-2.39-4.86-4.28-7.95-5.66-3.08-1.38-6.48-2.07-10.19-2.07s-7.11.69-10.19,2.07c-3.08,1.38-5.73,3.26-7.95,5.66-2.21,2.4-3.94,5.19-5.16,8.4-1.23,3.2-1.84,6.63-1.84,10.28s.61,7.08,1.84,10.28c1.23,3.2,2.95,6,5.16,8.4,2.21,2.4,4.86,4.28,7.95,5.66,3.08,1.38,6.48,2.07,10.19,2.07Z"/>
    <path class="cls-1" d="M662.03,326.62h24.43c2.09,0,4.31.24,6.64.72,2.34.48,4.65,1.24,6.96,2.29,2.3,1.05,4.52,2.41,6.64,4.09,2.12,1.68,4,3.7,5.61,6.06,1.62,2.37,2.9,5.09,3.86,8.17.96,3.08,1.44,6.57,1.44,10.46s-.48,7.38-1.44,10.46c-.96,3.08-2.25,5.81-3.86,8.17-1.62,2.37-3.49,4.39-5.61,6.06-2.12,1.68-4.34,3.04-6.64,4.09-2.3,1.05-4.62,1.81-6.96,2.29-2.33.48-4.55.72-6.64.72h-24.43v-63.58ZM669.57,383.19h14.37c3.65,0,7.03-.48,10.15-1.44,3.11-.96,5.81-2.44,8.08-4.45,2.27-2,4.07-4.56,5.39-7.68,1.32-3.11,1.98-6.85,1.98-11.23s-.66-8.11-1.98-11.22c-1.32-3.11-3.11-5.67-5.39-7.68-2.28-2.01-4.97-3.49-8.08-4.45-3.11-.96-6.5-1.44-10.15-1.44h-14.37v49.57Z"/>
    <path class="cls-1" d="M783.61,326.62h7.54v63.58h-7.54v-63.58Z"/>
    <path class="cls-1" d="M914.9,385.89c-3.65,2.04-7.5,3.53-11.54,4.49-4.04.96-8.13,1.44-12.26,1.44-4.97,0-9.52-.81-13.65-2.42s-7.71-3.89-10.73-6.82c-3.02-2.93-5.37-6.45-7.05-10.55-1.68-4.1-2.51-8.64-2.51-13.61s.88-9.59,2.65-13.69c1.77-4.1,4.21-7.6,7.32-10.51,3.11-2.9,6.73-5.16,10.87-6.78,4.13-1.62,8.59-2.42,13.38-2.42,4.19,0,8.22.63,12.08,1.89,3.86,1.26,7.32,3.41,10.37,6.47l-5.66,5.93c-2.16-2.34-4.77-4.13-7.86-5.39-3.08-1.26-6.24-1.89-9.47-1.89-3.65,0-7.04.66-10.15,1.98-3.11,1.32-5.82,3.14-8.13,5.48-2.3,2.34-4.1,5.12-5.39,8.35-1.29,3.23-1.93,6.77-1.93,10.6s.64,7.27,1.93,10.51c1.29,3.23,3.08,6.03,5.39,8.4,2.3,2.37,5.07,4.21,8.31,5.52,3.23,1.32,6.79,1.98,10.69,1.98,2.57,0,5.27-.31,8.08-.94,2.81-.63,5.39-1.54,7.72-2.74v-19.49h-14.64v-7.01h22.18v31.25Z"/>
    <path class="cls-1" d="M984.58,326.62h7.54v63.58h-7.54v-63.58Z"/>
    <path class="cls-1" d="M1104.46,333.62h-21.01v56.57h-7.54v-56.57h-21.01v-7h49.57v7Z"/>
    <path class="cls-1" d="M1179.62,326.62h7.09l27.03,63.58h-8.8l-6.47-15.62h-31.79l-6.56,15.62h-8.53l28.02-63.58ZM1183.03,336.32h-.18l-13.2,31.25h25.95l-12.57-31.25Z"/>
    <path class="cls-1" d="M1276.06,326.62h7.54v56.57h29.09v7h-36.64v-63.58Z"/>
  </g>
</svg>