<?xml version="1.0" encoding="UTF-8"?>
<svg id="Capa_1" xmlns="http://www.w3.org/2000/svg" viewBox="0 0 40 40">
  <defs>
    <style>
      .cls-1 {
        fill: #1ca88e;
      }

      .cls-2 {
        fill: #fff;
      }
    </style>
  </defs>
  <circle class="cls-1" cx="20" cy="20" r="20"/>
  <path class="cls-2" d="M31.2,27.57c-1.23,1.69-2.77,2.98-4.61,3.85-1.84.88-3.81,1.32-5.91,1.32-1.83,0-3.55-.31-5.16-.94-1.61-.63-3.02-1.5-4.23-2.62-1.21-1.12-2.16-2.46-2.86-4.02s-1.05-3.27-1.05-5.12.34-3.52,1.03-5.07c.68-1.55,1.62-2.9,2.81-4.04,1.19-1.14,2.58-2.04,4.16-2.69s3.28-.98,5.09-.98c1.51,0,2.99.25,4.43.74,1.45.49,2.75,1.22,3.89,2.18s2.06,2.14,2.76,3.54c.7,1.4,1.05,3.01,1.05,4.81,0,1.21-.14,2.26-.43,3.15-.28.89-.65,1.64-1.1,2.26-.45.62-.95,1.12-1.51,1.51-.56.39-1.12.68-1.68.89-.56.2-1.1.35-1.61.43-.52.08-.94.12-1.28.12-.96,0-1.64-.19-2.05-.58-.41-.39-.63-.81-.65-1.27h-.07c-.46.46-1.03.88-1.71,1.27-.68.39-1.57.58-2.67.58-.73,0-1.4-.14-2-.43s-1.13-.68-1.56-1.18c-.43-.5-.77-1.11-1.01-1.82-.24-.71-.36-1.48-.36-2.33,0-1,.16-1.97.48-2.89.32-.92.77-1.75,1.35-2.47s1.3-1.29,2.14-1.71c.84-.42,1.8-.63,2.88-.63.91,0,1.67.15,2.28.44s1.08.8,1.42,1.51h.07l.27-1.54h3.22l-1.27,6.75c-.07.32-.14.64-.2.96-.07.32-.1.65-.1.99,0,.41.06.72.19.94.13.22.37.32.74.32s.72-.1,1.08-.29c.35-.19.67-.5.94-.92.27-.42.5-.95.67-1.59.17-.64.26-1.4.26-2.3,0-1.37-.22-2.57-.67-3.61-.45-1.04-1.06-1.91-1.85-2.62-.79-.71-1.73-1.24-2.83-1.59-1.1-.35-2.29-.53-3.6-.53-1.42,0-2.71.24-3.87.72-1.17.48-2.17,1.15-3,2.02s-1.48,1.9-1.93,3.08-.69,2.48-.69,3.87c0,1.51.25,2.85.76,4.04.5,1.19,1.2,2.19,2.1,3.01.9.82,1.97,1.46,3.2,1.9,1.23.45,2.57.67,4.01.67,1.3,0,2.49-.18,3.58-.55,1.08-.37,2.05-.88,2.89-1.54h3.77ZM20.03,16.51c-.57,0-1.08.11-1.54.33s-.84.51-1.15.89c-.31.38-.54.82-.7,1.32-.16.5-.24,1.04-.24,1.61,0,.18.02.45.05.81s.14.7.31,1.04c.17.34.45.65.84.91.39.26.94.39,1.64.39.64,0,1.17-.13,1.61-.38s.78-.58,1.03-.98c.25-.4.43-.84.53-1.34s.16-.98.16-1.46c0-.91-.21-1.67-.62-2.26-.41-.59-1.05-.89-1.92-.89Z"/>
</svg>