<?xml version="1.0" encoding="UTF-8"?>
<svg id="Capa_1" xmlns="http://www.w3.org/2000/svg" viewBox="0 0 826.45 133.55">
  <defs>
    <style>
      .cls-1 {
        fill: #fff;
      }
    </style>
  </defs>
  <g>
    <g>
      <path class="cls-1" d="M251.71,14.83l-.26.27c-2.07,0-3.23.54-3.49,1.65-.14.62-.24,1.95-.32,3.99-.05,1.52-.08,3.72-.08,6.58v8.09c0,5.19-1.02,8.9-3.07,11.13-2.71,2.94-6.57,4.4-11.59,4.4-4.58,0-8.16-.76-10.73-2.27-2.17-1.3-3.59-3.13-4.25-5.52-.42-1.52-.63-5.49-.63-11.91v-6.77c0-4.16-.11-6.87-.34-8.13-.09-.51-.39-.83-.89-.98-.26-.07-1.29-.15-3.08-.25l-.26-.27v-1.76l.26-.26c1.69.11,4.38.16,8.09.16s6.46-.05,8.05-.16l.26.26v1.76l-.26.27c-1.78.1-2.81.19-3.07.25-.51.15-.8.47-.89.98-.23,1.26-.34,3.97-.34,8.13v5.41c0,6.61.29,10.66.89,12.15,1.18,2.94,4.11,4.41,8.79,4.41,3.06,0,5.45-.75,7.16-2.26.8-.72,1.36-1.44,1.68-2.17.31-.73.56-1.87.72-3.41.16-1.44.24-2.89.24-4.36v-5.46c0-4.58-.02-7.71-.05-9.39-.03-1.57-.14-2.6-.31-3.07-.14-.36-.44-.62-.92-.82-.4-.16-1.48-.29-3.23-.39l-.26-.27v-1.76l.26-.26c1.52.11,3.09.16,4.69.16,1.21,0,3.53-.05,6.95-.16l.26.26v1.76Z"/>
      <path class="cls-1" d="M317.31,14.85l-.29.27c-1.78.1-2.8.18-3.07.26-.51.14-.8.46-.89.97-.23,1.26-.34,3.97-.34,8.13v10.66c0,7.85.11,12.97.34,15.35l-.34.24c-1.98-.34-3.47-.57-4.49-.71-4.69-5.26-12.69-14.87-24.01-28.81v17.16c0,4.17.11,6.88.34,8.14.09.51.38.83.9.97.26.07,1.28.16,3.07.25l.26.26v1.78l-.26.24c-2.02-.11-3.89-.16-5.62-.16-2.01,0-4.03.05-6.06.16l-.26-.24v-1.78l.26-.26c1.79-.09,2.81-.19,3.08-.25.5-.14.8-.47.89-.97.23-1.26.34-3.97.34-8.14v-13.88c0-4.15-.11-6.86-.34-8.13-.09-.51-.39-.83-.89-.97-.27-.07-1.29-.16-3.08-.26l-.26-.27v-1.78l.26-.23c1.67.11,3.25.16,4.75.16,2.35,0,4.32-.06,5.87-.16,6.29,8.39,13.69,17.39,22.2,26.99v-15.35c0-4.15-.12-6.86-.34-8.13-.09-.51-.38-.83-.9-.97-.26-.07-1.28-.16-3.07-.26l-.26-.27v-1.78l.26-.23c1.96.11,3.82.16,5.59.16,2.25,0,4.28-.06,6.08-.16l.26.23v1.78Z"/>
      <path class="cls-1" d="M359.01,49.73l-.24.27c-1.75-.11-4.45-.16-8.11-.16s-6.33.05-8.08.16l-.23-.27v-1.76l.26-.26c1.78-.1,2.8-.19,3.06-.26.51-.14.81-.46.89-.98.23-1.26.34-3.97.34-8.13v-13.88c0-4.16-.11-6.87-.34-8.13-.08-.51-.38-.83-.89-.98-.26-.07-1.28-.15-3.06-.25l-.26-.27v-1.78l.26-.23c1.68.11,4.37.16,8.08.16s6.38-.05,8.06-.16l.26.23v1.78l-.26.27c-1.78.1-2.81.19-3.07.25-.51.15-.8.47-.89.98-.23,1.26-.34,3.97-.34,8.13v13.88c0,4.17.11,6.87.34,8.13.09.51.38.84.89.98.26.07,1.29.16,3.07.26l.26.26v1.76Z"/>
      <path class="cls-1" d="M423.27,14.87l-.26.26c-1.23.12-2.01.26-2.35.43-.34.16-.7.56-1.09,1.19-.42.69-1.17,2.33-2.26,4.94l-1.86,4.43-3.51,8.55c-3.03,7.36-5.06,12.52-6.11,15.51h-3.99l-12.04-29.2c-1.28-3.05-2.17-4.79-2.68-5.25-.39-.37-1.46-.57-3.21-.6l-.26-.29v-1.73l.29-.29c1.84.11,4.15.16,6.95.16,3.5,0,6.68-.05,9.54-.16l.26.29v1.76l-.24.26c-1.77.01-2.92.17-3.49.47-.3.18-.45.47-.45.89,0,.45.57,2.11,1.71,4.99l1.23,3.12,6.64,16.4,5.82-14.62c.22-.56.75-1.97,1.57-4.23,1.19-3.25,1.78-5.15,1.78-5.69,0-.58-.19-.92-.57-1.05-.39-.12-1.56-.22-3.51-.28l-.27-.26v-1.79l.29-.26c1.97.11,4.03.16,6.16.16,1.52,0,3.38-.05,5.59-.16l.29.29v1.76Z"/>
      <path class="cls-1" d="M475.85,41.08c-.38,2.55-.57,5.43-.57,8.65l-.27.27-19.07-.16c-3.18,0-5.43.05-6.74.16l-.26-.27v-.73l.13-.31c1.3-.83,2-1.35,2.1-1.55.16-.33.25-1.5.29-3.49l.08-5.88v-13.3c0-4.16-.11-6.87-.35-8.13-.08-.51-.38-.83-.89-.98-.26-.07-1.29-.15-3.07-.25l-.26-.27v-1.78l.26-.23c1.77.11,4.49.16,8.18.16,3.29,0,9.54-.05,18.76-.16l.29.21-.34,2.91c-.1.94-.18,1.72-.23,2.37l-.19,2.44-.25.29h-1.53l-.26-.26c-.02-2.38-.16-3.73-.42-4.06-.19-.24-1.13-.44-2.82-.58-1.69-.14-3.17-.21-4.45-.21-1.53,0-3.06.06-4.62.19-.19,1.83-.29,4.38-.29,7.63v5.43c1.38.08,2.5.13,3.36.13l3.43-.02c1.6-.02,2.52-.15,2.73-.39.28-.31.46-1.5.55-3.55l.27-.25h1.62l.26.25c-.07,1.97-.11,3.76-.11,5.38,0,1.77.03,3.7.11,5.8l-.26.24h-1.75l-.27-.27c0-2.01-.14-3.21-.42-3.58-.28-.37-1.13-.63-2.55-.75-1.06-.09-2.2-.13-3.4-.13-1.28,0-2.47.04-3.57.13v8.01c0,2.29.04,4.51.13,6.66h3.57c5.11,0,8.24-.2,9.4-.61.19-.06.33-.16.42-.29.18-.24.35-.76.5-1.57l.63-3.25.26-.29h1.6l.29.27Z"/>
      <path class="cls-1" d="M536.59,49.73l-.26.27c-.12,0-.46-.01-.99-.03-2.4-.09-3.9-.14-4.49-.14-.9,0-2.31.05-4.25.16-.07-.42-.4-1.12-1-2.1l-6.5-10.86-2.91-4.44c-.37-.54-.89-1.07-1.55-1.6l.3-.89c.4.01.7.03.89.03,1.72,0,3.06-.27,4.04-.82.89-.48,1.72-1.34,2.47-2.57.75-1.22,1.13-2.68,1.13-4.38,0-2.95-1.09-4.95-3.3-5.98-1.05-.49-2.57-.74-4.59-.74-.87,0-1.72.07-2.52.21-.17,1.72-.26,4.64-.26,8.77v13.72c0,4.17.12,6.87.34,8.13.08.51.39.84.9.98.25.07,1.28.16,3.06.26l.27.26v1.76l-.24.27c-1.75-.11-4.44-.16-8.08-.16s-6.46.05-8.08.16l-.26-.24v-1.79l.26-.26c1.78-.1,2.81-.19,3.07-.26.5-.14.8-.46.89-.98.23-1.26.34-3.97.34-8.13v-13.88c0-4.16-.12-6.87-.34-8.13-.09-.51-.38-.83-.89-.98-.27-.07-1.29-.15-3.07-.25l-.26-.27v-1.78l.26-.23c1.71.11,4.41.16,8.08.16,2.13,0,3.87-.03,5.19-.08,2.64-.11,4.61-.16,5.93-.16,3.03,0,5.25.27,6.66.81,1.91.74,3.18,1.99,3.83,3.72.32.87.48,1.88.48,3.06,0,4.75-2.68,8.12-8.03,10.12.88,1.47,1.81,2.96,2.79,4.46l4.04,6.22c2.38,3.68,3.96,5.76,4.74,6.27.41.27.96.4,1.68.4l.26.26v1.68Z"/>
      <path class="cls-1" d="M588.58,37.71c0,2.89-.82,5.43-2.46,7.64-1.44,1.94-3.32,3.38-5.64,4.33-2.14.87-4.68,1.31-7.64,1.31-3.67,0-7.28-.84-10.81-2.52l-.32-.58c.5-2.01.74-4.87.74-8.58l.26-.26h1.68l.23.26v.61c0,.97.11,2.27.31,3.87.63,1.12,1.76,2.09,3.39,2.89,1.7.84,3.47,1.27,5.3,1.27,3.46,0,5.86-1.21,7.2-3.62.67-1.24,1.02-2.53,1.02-3.86,0-2.24-.94-3.84-2.81-4.8-.93-.47-2.43-.86-4.49-1.18-4.67-.72-7.74-1.62-9.22-2.7-2.22-1.64-3.32-4.19-3.32-7.63s1.21-6.45,3.62-8.57c2.56-2.25,6.11-3.36,10.66-3.36,4.09,0,7.4.65,9.91,1.96l.18.63c-.42,2.09-.67,4.58-.76,7.51l-.29.26h-1.65l-.27-.26c-.05-2.09-.14-3.47-.26-4.09-.55-.83-1.49-1.52-2.83-2.1-1.44-.59-2.94-.9-4.49-.9-2.35,0-4.2.62-5.56,1.87-1.27,1.17-1.92,2.68-1.92,4.54,0,2.01.73,3.48,2.18,4.43.94.62,3.18,1.2,6.7,1.76.37.05,1.39.23,3.07.53,1.03.18,1.98.43,2.86.75,1.76.66,3.09,1.68,3.98,3.05.96,1.49,1.45,3.34,1.45,5.56Z"/>
      <path class="cls-1" d="M631.29,49.73l-.23.27c-1.77-.11-4.45-.16-8.11-.16s-6.34.05-8.08.16l-.24-.27v-1.76l.27-.26c1.78-.1,2.81-.19,3.06-.26.5-.14.8-.46.9-.98.22-1.26.34-3.97.34-8.13v-13.88c0-4.16-.12-6.87-.34-8.13-.09-.51-.39-.83-.9-.98-.26-.07-1.28-.15-3.06-.25l-.27-.27v-1.78l.27-.23c1.67.11,4.37.16,8.08.16s6.37-.05,8.05-.16l.26.23v1.78l-.26.27c-1.78.1-2.8.19-3.07.25-.51.15-.8.47-.89.98-.22,1.26-.34,3.97-.34,8.13v13.88c0,4.17.12,6.87.34,8.13.09.51.38.84.89.98.27.07,1.29.16,3.07.26l.26.26v1.76Z"/>
      <path class="cls-1" d="M696.84,29.21c0,5.93-1.93,10.84-5.8,14.74-1.89,1.91-4.18,3.38-6.87,4.44-2.89,1.14-6.25,1.67-10.1,1.61l-9.27-.16c-2.52-.04-4.6.02-6.25.16l-.25-.27v-.73l.13-.31c1.29-.83,1.99-1.35,2.1-1.55.16-.31.25-1.48.29-3.49l.08-5.88v-13.3c0-4.16-.11-6.87-.34-8.13-.09-.51-.39-.83-.89-.98-.26-.07-1.29-.15-3.07-.25l-.27-.27v-1.78l.27-.23c1.85.11,3.62.16,5.29.16,4.08,0,7.75-.05,11.03-.16,1.63-.05,3.25-.08,4.9-.08,4.55,0,8.05.52,10.47,1.55,2.67,1.13,4.75,2.93,6.25,5.35,1.54,2.5,2.31,5.69,2.31,9.57ZM688.79,30.47c0-4.85-1.17-8.57-3.51-11.17-1.23-1.37-2.76-2.33-4.59-2.89-1.75-.52-4.19-.78-7.31-.78-1.63,0-3.19.11-4.68.34-.18,1.96-.26,6.7-.26,14.23l.06,11.46c.02,2.55.08,4.25.2,5.09,1.54.25,3.11.36,4.72.36,3.48,0,6.23-.5,8.24-1.52,2.17-1.1,3.89-2.97,5.17-5.61,1.31-2.73,1.97-5.89,1.97-9.5Z"/>
      <path class="cls-1" d="M760.97,49.73l-.24.27c-3.88-.11-6.22-.16-7.03-.16-3.21,0-6.2.05-8.97.16l-.24-.27v-1.65l.26-.29,2.28-.13c.97-.05,1.45-.39,1.45-1.02,0-.37-.24-1.19-.73-2.47l-2.13-5.54c-2.42-.04-4.88-.05-7.4-.05-1.36,0-3.39.02-6.09.05l-1.16,3.2c-.87,2.43-1.3,3.95-1.3,4.57,0,.66.4,1.06,1.23,1.18.45.07,1.35.14,2.68.21l.26.26v1.68l-.26.27c-3.24-.11-5.32-.16-6.24-.16-.72,0-2.49.05-5.33.16l-.27-.24v-1.71l.29-.26c1.8-.1,2.9-.46,3.32-1.08.4-.62,1.95-4.26,4.63-10.94l6.84-17.13c.51-1.33,1.28-3.33,2.31-6h3.73l13.91,32.71c.55,1.24,1.03,1.94,1.47,2.1.57.21,1.4.31,2.49.31l.24.29v1.68ZM744.34,35.61l-5.61-13.74-5.39,13.74c1.43.06,3.3.08,5.59.08s4.03-.03,5.4-.08Z"/>
      <path class="cls-1" d="M826.37,29.21c0,5.93-1.94,10.84-5.8,14.74-1.89,1.91-4.18,3.38-6.87,4.44-2.88,1.14-6.25,1.67-10.1,1.61l-9.26-.16c-2.52-.04-4.6.02-6.25.16l-.26-.27v-.73l.13-.31c1.29-.83,2-1.35,2.1-1.55.16-.31.26-1.48.29-3.49l.08-5.88v-13.3c0-4.16-.11-6.87-.34-8.13-.09-.51-.38-.83-.89-.98-.26-.07-1.29-.15-3.07-.25l-.27-.27v-1.78l.27-.23c1.85.11,3.62.16,5.3.16,4.07,0,7.75-.05,11.02-.16,1.62-.05,3.26-.08,4.9-.08,4.55,0,8.04.52,10.47,1.55,2.66,1.13,4.74,2.93,6.24,5.35,1.54,2.5,2.31,5.69,2.31,9.57ZM818.31,30.47c0-4.85-1.17-8.57-3.52-11.17-1.22-1.37-2.75-2.33-4.59-2.89-1.75-.52-4.19-.78-7.32-.78-1.63,0-3.18.11-4.67.34-.18,1.96-.27,6.7-.27,14.23l.05,11.46c.02,2.55.09,4.25.21,5.09,1.53.25,3.11.36,4.72.36,3.48,0,6.23-.5,8.24-1.52,2.16-1.1,3.89-2.97,5.16-5.61,1.31-2.73,1.97-5.89,1.97-9.5Z"/>
    </g>
    <g>
      <path class="cls-1" d="M247.7,103.91c0,3.76-1.07,7.08-3.21,9.94-1.87,2.53-4.32,4.4-7.35,5.63-2.78,1.14-6.09,1.71-9.94,1.71-4.78,0-9.47-1.09-14.07-3.28l-.41-.75c.63-2.62.96-6.34.96-11.17l.34-.34h2.19l.31.34v.79c0,1.27.14,2.96.41,5.05.82,1.46,2.29,2.7,4.41,3.75,2.21,1.09,4.51,1.64,6.9,1.64,4.51,0,7.63-1.57,9.36-4.71.89-1.62,1.33-3.29,1.33-5.02,0-2.92-1.22-5-3.65-6.25-1.2-.61-3.15-1.13-5.84-1.53-6.08-.94-10.07-2.11-11.99-3.52-2.89-2.14-4.34-5.45-4.34-9.94s1.57-8.38,4.71-11.17c3.32-2.91,7.94-4.37,13.87-4.37,5.33,0,9.63.86,12.91,2.56l.24.82c-.55,2.71-.88,5.96-.99,9.77l-.38.34h-2.15l-.34-.34c-.07-2.73-.18-4.51-.34-5.33-.71-1.07-1.94-1.98-3.69-2.73-1.87-.78-3.81-1.16-5.84-1.16-3.05,0-5.46.8-7.24,2.42-1.66,1.53-2.5,3.5-2.5,5.91,0,2.61.94,4.53,2.84,5.77,1.23.8,4.13,1.56,8.71,2.28.47.07,1.81.3,3.99.68,1.34.23,2.58.55,3.72.99,2.3.87,4.03,2.19,5.19,3.96,1.25,1.94,1.88,4.35,1.88,7.24Z"/>
      <path class="cls-1" d="M277.34,119.56l-.31.34c-2.27-.13-5.79-.2-10.55-.2s-8.24.07-10.52.2l-.3-.34v-2.29l.34-.34c2.32-.14,3.66-.26,4-.34.65-.18,1.05-.6,1.15-1.26.3-1.65.45-5.17.45-10.59v-18.07c0-5.42-.15-8.94-.45-10.59-.11-.66-.5-1.08-1.15-1.26-.35-.09-1.68-.2-4-.34l-.34-.34v-2.32l.34-.31c2.19.14,5.69.2,10.52.2s8.3-.06,10.49-.2l.34.31v2.32l-.34.34c-2.32.14-3.66.25-4,.34-.66.19-1.05.6-1.16,1.26-.3,1.64-.45,5.17-.45,10.59v18.07c0,5.42.15,8.95.45,10.59.11.65.5,1.08,1.16,1.26.34.08,1.68.21,4,.34l.34.34v2.29Z"/>
      <path class="cls-1" d="M349.3,119.56l-.35.34c-2.25-.13-5.76-.2-10.52-.2s-8.38.07-10.52.2l-.31-.31v-2.32l.34-.34c2.32-.14,3.65-.26,3.99-.34.66-.18,1.05-.6,1.16-1.26.3-1.65.44-5.17.44-10.59v-23.09l-7.62,15.61c-.43.87-1.91,4.06-4.44,9.56l-6.25,13.67h-2.29c-1.18-2.83-2.79-6.39-4.81-10.7l-4.78-10.14-8.95-18.61v23.7c0,5.42.15,8.95.44,10.59.12.65.5,1.08,1.16,1.26.35.08,1.68.21,4,.34l.35.34v2.32l-.35.31c-2.61-.13-5.05-.2-7.31-.2-2.62,0-5.24.07-7.89.2l-.34-.31v-2.32l.34-.34c2.32-.14,3.66-.26,3.99-.34.66-.18,1.05-.6,1.16-1.26.3-1.65.45-5.17.45-10.59v-18.07c0-5.42-.15-8.94-.45-10.59-.11-.66-.5-1.08-1.16-1.26-.34-.09-1.67-.2-3.99-.34l-.34-.34v-2.32l.34-.31c2.37.14,5.36.2,8.98.2,2.78,0,5.2-.06,7.28-.2.74,1.74,1.82,4.16,3.21,7.31l2.18,4.7,10.86,22.72,5.23-10.59,8.16-17.45c.96-2.08,1.9-4.31,2.8-6.7,2.57.14,4.3.2,5.19.2,4.46,0,7.88-.06,10.24-.2l.35.31v2.36l-.35.31c-2.32.14-3.65.25-4,.34-.65.19-1.05.6-1.16,1.26-.29,1.64-.44,5.17-.44,10.59v18.07c0,5.42.15,8.95.44,10.59.11.65.51,1.08,1.16,1.26.34.08,1.68.21,4,.34l.35.34v2.29Z"/>
      <path class="cls-1" d="M408.22,94.46c0,8.4-2.45,14.99-7.35,19.78-4.75,4.64-11.26,6.96-19.49,6.96-7.79,0-13.9-2.19-18.34-6.57-4.44-4.38-6.66-10.48-6.66-18.29,0-10.94,4.18-18.53,12.54-22.74,3.8-1.91,8.48-2.87,14.03-2.87,7.95,0,14.13,2.08,18.54,6.25,4.49,4.24,6.73,10.07,6.73,17.49ZM397.7,96.23c0-6.6-1.33-11.84-3.98-15.73-2.65-3.89-6.54-5.82-11.66-5.82-6.76,0-11.25,3.04-13.45,9.12-1.14,3.12-1.71,6.61-1.71,10.48,0,7.04,1.3,12.59,3.89,16.67,2.69,4.21,6.7,6.32,12.06,6.32,6.49,0,10.85-3.2,13.08-9.6,1.18-3.39,1.77-7.21,1.77-11.44ZM393.43,56.93l-15.4,11.13-1.57-1.2v-.47l7.48-9.43,8.74-1.06.76,1.03Z"/>
      <path class="cls-1" d="M469.14,74.14l-.38.34c-2.32.14-3.65.25-3.99.34-.66.19-1.05.6-1.16,1.26-.3,1.64-.44,5.17-.44,10.59v13.87c0,10.22.15,16.88.44,19.98l-.44.31c-2.58-.43-4.52-.75-5.84-.92-6.1-6.85-16.51-19.35-31.24-37.5v22.34c0,5.42.15,8.95.44,10.59.12.65.5,1.08,1.16,1.26.35.08,1.68.21,4,.34l.34.34v2.32l-.34.31c-2.62-.13-5.05-.2-7.31-.2-2.62,0-5.25.07-7.89.2l-.35-.31v-2.32l.35-.34c2.32-.14,3.65-.26,3.99-.34.66-.18,1.05-.6,1.16-1.26.29-1.65.44-5.17.44-10.59v-18.07c0-5.42-.14-8.94-.44-10.59-.12-.66-.5-1.08-1.16-1.26-.34-.09-1.68-.2-3.99-.34l-.35-.34v-2.32l.35-.31c2.16.14,4.22.2,6.18.2,3.07,0,5.62-.06,7.65-.2,8.2,10.93,17.83,22.65,28.89,35.14v-19.98c0-5.42-.14-8.94-.44-10.59-.11-.66-.5-1.08-1.16-1.26-.34-.09-1.67-.2-3.99-.34l-.34-.34v-2.32l.34-.31c2.55.14,4.97.2,7.28.2,2.94,0,5.58-.06,7.92-.2l.34.31v2.32Z"/>
    </g>
    <g>
      <path class="cls-1" d="M534.25,104.29c0,5.71-2.76,10.14-8.3,13.29-2.73,1.54-6.24,2.32-10.55,2.32-1.36,0-2.49-.01-3.38-.04l-8.16-.17c-2.91,0-5.16.07-6.76.2l-.34-.33v-.96l.17-.41c1.68-1.07,2.59-1.73,2.73-2.01.21-.41.33-1.93.38-4.54l.1-7.65v-17.31c0-5.42-.15-8.95-.45-10.59-.11-.66-.5-1.08-1.16-1.27-.34-.09-1.68-.2-3.99-.33l-.34-.35v-2.32l.34-.31c2.03.14,5.51.21,10.45.21,3.14,0,5.97-.05,8.5-.17,2-.09,3.7-.13,5.09-.13,6.35,0,10.52,1.44,12.5,4.34,1.04,1.53,1.56,3.28,1.56,5.26,0,3.23-1.26,5.92-3.78,8.1-1.21,1.02-2.46,1.78-3.76,2.28-1.51.57-3.14,1.06-4.92,1.47,9.38.41,14.07,4.23,14.07,11.44ZM522.33,82.67c0-5.04-2.62-7.54-7.85-7.54-1.73,0-3.2.09-4.4.27-.09,2.39-.14,4.6-.14,6.63v9.43c.52.04,1.57.06,3.14.06,4.12,0,6.83-1.32,8.12-3.96.76-1.53,1.13-3.15,1.13-4.89ZM523.81,105.35c0-6.83-3.59-10.25-10.76-10.25-.91,0-1.95.03-3.11.1v15.82c0,1.7.04,3.38.14,5.02.93.15,2.24.24,3.92.24,3.19,0,5.64-1,7.38-3,1.62-1.91,2.43-4.56,2.43-7.92Z"/>
      <path class="cls-1" d="M594.74,94.46c0,8.4-2.44,14.99-7.34,19.78-4.76,4.64-11.26,6.97-19.5,6.97-7.79,0-13.9-2.19-18.33-6.57-4.45-4.39-6.66-10.48-6.66-18.29,0-10.95,4.17-18.53,12.53-22.74,3.8-1.91,8.47-2.87,14.03-2.87,7.95,0,14.13,2.08,18.54,6.25,4.49,4.23,6.72,10.06,6.72,17.48ZM584.23,96.23c0-6.6-1.32-11.84-3.97-15.73-2.66-3.89-6.54-5.82-11.66-5.82-6.76,0-11.25,3.04-13.46,9.12-1.13,3.12-1.7,6.61-1.7,10.49,0,7.03,1.3,12.59,3.89,16.66,2.69,4.21,6.7,6.32,12.06,6.32,6.48,0,10.84-3.2,13.08-9.59,1.18-3.39,1.77-7.21,1.77-11.44Z"/>
      <path class="cls-1" d="M639.36,108.29c-.5,3.33-.76,7.08-.76,11.27l-.34.33-24.83-.2c-4.14,0-7.07.07-8.77.2l-.34-.33v-.96l.17-.41c1.68-1.07,2.59-1.73,2.74-2.01.2-.41.33-1.93.37-4.54l.1-7.65v-17.31c0-5.42-.15-8.95-.44-10.59-.12-.66-.5-1.08-1.17-1.27-.34-.09-1.67-.2-3.99-.33l-.34-.35v-2.32l.34-.31c2.35.14,5.79.21,10.32.21s8.25-.06,10.68-.21l.35.31v2.36l-.35.32c-2.32.13-3.65.25-3.99.33-.66.19-1.05.61-1.17,1.27-.29,1.64-.44,5.17-.44,10.59v20.42c0,2.99.05,5.88.17,8.68h4.65c6.64,0,10.72-.26,12.23-.78.25-.09.43-.21.54-.38.23-.32.45-.99.65-2.04l.82-4.23.34-.38h2.08l.38.34Z"/>
      <path class="cls-1" d="M667.96,119.56l-.31.33c-2.28-.13-5.79-.2-10.56-.2s-8.24.07-10.52.2l-.3-.33v-2.29l.34-.34c2.33-.13,3.65-.25,4-.34.66-.18,1.05-.61,1.17-1.26.29-1.64.44-5.17.44-10.59v-18.07c0-5.42-.15-8.95-.44-10.59-.12-.66-.51-1.08-1.17-1.27-.34-.09-1.67-.2-4-.33l-.34-.35v-2.32l.34-.31c2.19.14,5.69.21,10.52.21s8.3-.06,10.49-.21l.34.31v2.32l-.34.35c-2.33.13-3.65.25-4,.33-.66.19-1.05.61-1.16,1.27-.3,1.64-.44,5.17-.44,10.59v18.07c0,5.42.15,8.95.44,10.59.11.66.51,1.09,1.16,1.26.34.09,1.67.21,4,.34l.34.34v2.29ZM668.44,56.93l-15.4,11.13-1.57-1.2v-.48l7.48-9.42,8.74-1.06.75,1.03Z"/>
      <path class="cls-1" d="M725.6,74.17l-.35.35c-1.59.16-2.62.34-3.05.55-.46.22-.92.74-1.43,1.56-.54.89-1.53,3.03-2.93,6.43l-2.43,5.77-4.57,11.14c-3.94,9.57-6.59,16.29-7.96,20.19h-5.19l-15.68-38.01c-1.66-3.96-2.82-6.24-3.48-6.83-.5-.48-1.89-.74-4.17-.78l-.34-.38v-2.25l.37-.38c2.39.14,5.41.21,9.05.21,4.55,0,8.69-.06,12.42-.21l.35.38v2.28l-.31.35c-2.3.02-3.81.22-4.54.61-.39.23-.58.62-.58,1.16,0,.59.73,2.75,2.22,6.49l1.6,4.05,8.64,21.35,7.58-19.02c.29-.73.97-2.56,2.05-5.49,1.55-4.24,2.32-6.71,2.32-7.42,0-.75-.25-1.21-.75-1.36-.5-.16-2.02-.29-4.58-.37l-.34-.35v-2.32l.37-.34c2.57.14,5.25.21,8.02.21,1.99,0,4.41-.06,7.28-.21l.38.38v2.28Z"/>
      <path class="cls-1" d="M774.28,119.56l-.31.33c-5.05-.13-8.1-.2-9.15-.2-4.19,0-8.08.07-11.69.2l-.3-.33v-2.16l.35-.37,2.97-.18c1.25-.06,1.88-.5,1.88-1.32,0-.48-.32-1.55-.95-3.21l-2.77-7.21c-3.14-.05-6.35-.07-9.63-.07-1.77,0-4.41.03-7.92.07l-1.5,4.17c-1.14,3.16-1.71,5.14-1.71,5.94,0,.87.53,1.38,1.61,1.54.59.08,1.75.19,3.48.27l.34.34v2.2l-.34.33c-4.21-.13-6.93-.2-8.13-.2-.93,0-3.25.07-6.93.2l-.35-.31v-2.22l.37-.34c2.35-.14,3.79-.6,4.32-1.4.54-.8,2.54-5.55,6.03-14.24l8.91-22.3c.66-1.73,1.66-4.34,3-7.82h4.85l18.1,42.59c.7,1.61,1.35,2.52,1.91,2.73.75.26,1.83.41,3.24.41l.31.37v2.2ZM752.63,101.18l-7.3-17.89-7.01,17.89c1.87.07,4.29.1,7.28.1s5.23-.03,7.04-.1Z"/>
      <path class="cls-1" d="M826.45,119.56l-.34.33c-.16,0-.6-.01-1.3-.04-3.12-.11-5.06-.17-5.84-.17-1.16,0-3,.07-5.53.2-.09-.55-.52-1.46-1.3-2.73l-8.47-14.13-3.79-5.78c-.48-.7-1.15-1.4-2.01-2.09l.37-1.16c.52.03.91.04,1.16.04,2.23,0,3.98-.35,5.26-1.06,1.16-.64,2.23-1.76,3.21-3.35.98-1.6,1.47-3.5,1.47-5.7,0-3.85-1.43-6.44-4.3-7.79-1.37-.64-3.36-.95-5.98-.95-1.14,0-2.23.08-3.28.27-.23,2.23-.34,6.03-.34,11.41v17.86c0,5.42.14,8.95.44,10.59.11.66.5,1.09,1.16,1.26.34.09,1.67.21,4,.34l.34.34v2.29l-.3.33c-2.28-.13-5.79-.2-10.53-.2s-8.4.07-10.52.2l-.34-.31v-2.32l.34-.34c2.32-.13,3.66-.25,4-.34.66-.18,1.05-.61,1.16-1.26.3-1.64.44-5.17.44-10.59v-18.07c0-5.42-.15-8.95-.44-10.59-.11-.66-.5-1.08-1.16-1.27-.34-.09-1.67-.2-4-.33l-.34-.35v-2.32l.34-.31c2.23.14,5.74.21,10.52.21,2.78,0,5.03-.03,6.76-.1,3.43-.13,6.02-.2,7.72-.2,3.94,0,6.83.35,8.68,1.05,2.48.96,4.14,2.57,4.99,4.85.41,1.12.62,2.44.62,3.96,0,6.2-3.49,10.59-10.45,13.19,1.14,1.91,2.35,3.84,3.62,5.81l5.26,8.09c3.1,4.78,5.16,7.51,6.18,8.16.52.33,1.25.51,2.19.51l.34.34v2.2Z"/>
    </g>
  </g>
  <g>
    <path class="cls-1" d="M163.23,12.71c-1.47.33-2.12.82-2.28,2.29v37.51h2.11V17.62c.16-1.81,1.3-2.95,3.26-3.12l.16.17v-.17h5.55V.17h-44.52v14.33h4.73c2.12.17,3.1,1.31,3.42,3.12v34.89h1.79V15c-.16-1.47-.82-1.96-2.28-2.29h-5.7V1.63h40.43v11.08h-6.68Z"/>
    <path class="cls-1" d="M163.23,11.08l.65.17h4.41V3.43h-37.01v7.83h3.26l.65-.17c2.61.32,3.91,1.63,4.08,3.92v37.51h20.06l.15-36.7-.15-.81c.15-2.29,1.63-3.6,3.91-3.92Z"/>
    <path class="cls-1" d="M203.28,61.45c-2.13.27-5.88,2.08-7.28,3.29-1.4,1.2-3.42,2.93-3.42,2.93-.17-.81-1.86-2.31-3.26-2.28-1.4.03-3.27.98-5.88,3.26-.16,0-.99-.32-1.35-.69-.36-.38-.85-.91-1.02-1.02-.16-.12-1.04-.01-1.75.96-.71.97-1.98,4.37-2.09,5.49-.12,1.25-2.74,3.14-3.42,3.04-.91-.15-1.47-1.78-.49-3.04.94-1.22,2.91-3.71,3.42-4.36.51-.65.83-1.1.98-2,.14-.89-.69-1.93-1.24-1.77-.53.16-2.02.47-2.02.47,0-.17-.95-.68-1.79-.66-.52.01-1.32.07-2.73.81-1.41.75-3.71,1.91-5.59,3.09-2.1,1.33-4.87,2.92-7.66,5.39-1.11.98-1.93,1.45-2.55,1.54-.62.09-1.23-.1-1.11-1.42.07-.76,1.23-2.24,2.18-3.22.95-.97,2.92-2.94,2.71-4.11-.21-1.16-1.36-1.51-2.24-.85-.56.42-2.5,3.67-3.57,4.97-1.06,1.3-2.71,3.24-3.75,2.93-.87-.25-1.07-.8-.76-1.39.31-.59,3.68-4.11,4.45-4.96.77-.86,1.65-2.02.81-2.66-.87-.66-1.96-.1-3.2.96-1.24,1.06-3.26,3.33-5.54,7.09-1.31,1.78-2.77,2.76-4.56,2.76-1.46-.16-2.19-.14-2.45-1.8-.26-1.65,1.14-5.05,3.1-7.33,0,0,10.85-6.44,11.74-7.34,2.91-2.96.29-5.16-1.12-5.2-1.38-.03-2.86.94-4.48,2.17-1.15.87-6.04,5.45-7.77,8.25l-3.26-.33s-1.45-2.01-3.26-2.11c-1.8-.1-5.4,1.79-7.49,6.03-1.66,3.37-2.44,10.85,2.27,10.6,1.72-.09,3.92-1.31,5.88-3.42l.15,1.13c.49,1.63,2,2.46,3.58,2.28,1.58-.16,5.55-1.13,5.55-1.13,0,0,1.84,1.35,2.77,1.46.92.11.97,0,1.47-.33.49-.33,3.43-2.28,3.43-2.28,0,0,.09.43.33.82.23.4,1.25,1.44,2.44,1.3,1.19-.14,3.11-.55,4.24-1.8,1.14-1.25,5.47-5.21,5.87-5.54.4-.33.58-.46.49,1.47-.09,1.94.95,5.7,4.63,4.72,1.54-.41,3.03-1.78,3.03-1.78,0,1.53,2.58,2.35,3.75,1.78,3.07-1.48,4.11-3.96,4.28-5.61.17-1.65,1.28-2.68,1.92-2.53,1.01.24.53,1.27.04,2.22-.19.36-.78,1.51-1.24,2.3-.46.8-1.15,2.09-1.74,2.98-1.07,1.61-1.08,3.39-.49,3.76.61.39,2.61-1.15,3.34-1.89.56-.57,2.42-4.53,2.69-6.26.16-1.01.07-1.95.32-2.12.5-.34,1.36-.83,2.78-.98,1.41-.14,2.77,1.79,2.77,1.79-5.71,6.35-7.78,10.66-6.81,12.62.99,2.06,4.79,2.92,6.65,3.13,1.77.2,1.98.64,1.46,1.19-.34.37-1.09,1.06-2.43.28-1.84-1.06-7.84-2.78-13.58-3.52-4.45-.57-10.48.79-12.04,2.44l.66-5.05h-1.13c-3.44,32.78-20.88,49.09-52.02,49.56-30.01,0-46.64-16.62-49.57-49.56h-1.63c.49,9.78,2.12,17.93,5.21,24.79-2.19.31-5.14.9-8.94,2.43-2.65,1.06-7.75,4.5-8.34,8-.93,5.56,2.41,11.01,21.48,11.33,5.88.09,13.74-1.55,13.74-1.55,7.66,4.09,16.79,6.2,27.72,6.2,20.05,0,34.73-6.51,44.03-20.05,0,0,3.69,1.01,5.93,1.08,3.61.1,6.78-1.25,9.39-4.35,17.89,3.87,23.41,5.37,33.14,10.46,7.99,4.57,12.4,6.98,13.55,7.96-7.99-9.46-18-14.94-28.77-18.77-2.32-.83-13.83-4.38-15.94-4.38.16-3.59-1.01-5.79-3.68-6.78-2.38-.88-6.27-1.05-6.27-1.05l-.82,1.78,1.47-6.68s.32-.46,1.63-.99c2.6-1.06,6.97-2.87,11.09-2.45,4.11.44,10.81,3.53,14.83,3.43,4.02-.1,6.68-2.54,7.5-3.29.82-.75.98-2.23-.37-3.13-1.26-.84-3.59-2.04-5.41-2.56-1.63-.46-4.71-.44-5.02-.86-1.68-2.23,2.28-6,3.68-7.36,1.41-1.35,6.11-5.74,7.84-5.92,2.75-.28,5.65-.4,9.16-1.75,3.53-1.35,3-7.24-3.25-6.47ZM202.68,64.52c.91-.24,2.26-.16,2.79.06.81.32.84,1.72-3.1,2.27-1.83.26-5.22.65-5.22.65,1.86-2.32,4.62-2.75,5.53-2.98ZM149.6,57.15c.98-.66,2.65.4,1.24,1.23-.86.51-5.38,2.93-5.38,2.93.48-1.14,3.16-3.5,4.14-4.16ZM131.46,68.48c.14.06.62.16.62.16.66.66-1.43,4.91-2.28,5.54-.85.64-1.14,1.31-2.29,1.15-1.14-.16-1.15-1.54-.81-2.94.34-1.4,1.63-4.57,2.78-5.54.59,1.17,1.62,1.47,1.98,1.63ZM170.9,67.83c2.12-.77,2.33,1.1,2.09,1.56-.25.46-.59,1.37-1.11,2.03-.76.96-2.35,2.18-3.27,2.77-.61.4-1.1.79-1.47.66-.36-.13-.87-1.55-.32-3.43.48-1.61,3.31-3.3,4.09-3.59ZM164.22,102.98c1.89.56,2.52,2.14,1.44,2.78-1.09.64-4.31.7-5.52,1.7,1.14-4.96,3.01-4.8,4.08-4.48ZM63.5,112.63c.78-.07,2.87.04,2.87.04,3.26,4.57,5.71,7.5,7.17,8.64,0,0-2.24.87-8.71,1.06-3.46.1-6.36.09-9.32-1.27-2.87-1.33-2.37-3.06-.33-4.95,1.85-1.71,4.28-3.15,8.31-3.52Z"/>
    <path class="cls-1" d="M127.8,45.12c-.68.09-1.58.21-1.58.21,1.63-2.77,1.37-4.41.16-5.38-1.3-1.03-3.2-1.09-4.56-1.13-1.36-.05-2.12.15-2.12.15.65-3.59.18-5.08-1.68-5.15-1.86-.08-6.44,3.04-9.25,5.65-2.87,2.67-4.67,5.59-3.85,5.14,1.15-.64,4.08-2.92,6.63-3.84,0,0-.24,3.14-1.22,6.25-.8,2.54-2.52,6.65-4.32,9.58-1.14,1.85-10.12,13.12-13.21,17.12-1.26,1.63-.33,3.75,1.95,3.9,1.8.18,3.74-1.47,5.38-4.07,1.64-2.6,16.37-26.16,17.06-27.04.7-.87,1.38-1.47,2.47-.95,1.08.52-.05,5.06-.77,5.97-.72.91-7.39,9.11-8,10.11-.6,1-.91,2.65,0,2.76.91.12,1.48.03,1.96-.64.48-.67,7.83-9.51,8.97-10.76,1.14-1.24,2.81-3.68,4.24-3.26,1.43.42-.65,5.23-1.46,6.69-.82,1.46-6.69,11.89-6.69,11.89-8.65,5.22-14.03,10.6-15.98,16.16-6.42,1.01-8.91,1.71-14.35,3.9l-.81-6.03h-2.77c1.13,9.63,4.4,16.3,9.62,20.55,5.21,4.08,11.08,6.19,17.28,6.03,6.03.32,11.58-1.47,17.13-5.22,5.38-3.43,8.47-10.76,9.45-21.37h-2.28l-.17,2.29-.16-.16c-.76-1.2-11.26-2.09-13.91-2.11-2.59-.02-5.18.15-5.18.15,0,0,14.01-27.51,15.01-29.84,1.16-2.72,2.33-8.24-2.98-7.56ZM108.11,81.04c.36-.45,4.73-5.38,6.04-5.22,0,0-2.41,4.3-3.59,6.04-.74,1.08-2.04,1.98-2.77,1.46-.73-.52-.03-1.83.32-2.29ZM121.91,96.33c1.47-.52,2.65.18,3.15,1.1.58,1.04.2,2.77-2.6,2.53-1.75-.15-4.24-1.32-4.24-1.32,1.82-1.5,2.88-2.03,3.68-2.32ZM124.59,93.77c0-.65,4.61-1.62,5.86-1.79,1.25-.18,3.1.15,3.1.15-.81,2.61-1.95,4.9-3.26,6.68.49-2.93-1.45-5.06-4.73-5.05h-.97ZM112.03,88.38l11.09.17c-4.15,1.27-9.2,5.75-10.65,6.06-2.81.6-9.27.82-16.82,1.37-4.36.32-6.11-3.74-.18-6.04,2.05-.79,5.31-1.07,5.31-1.07-.16,2.78.77,4.89,4.41,4.91,1.3,0,5.54-1.53,6.84-5.39ZM128.17,101.43c-4.24,4.4-10.11,6.36-17.61,6.36-3.75,0-7.01-.64-10.11-1.79l.17-.16,13.04-5.55c1.85,2.18,5.82,3.24,7.87,3.39,1.48.11,3.94-.49,5.18-1.1.43-.21,1.15-.65,1.46-1.14ZM94.57,101.92s-3.85-3.85-2.03-3.41c.96.23,2.21.6,3.05.65,1.3.09,1.47-.21,3.26.11.92.16,1.76.52,1.91,1.01l-6.2,1.64Z"/>
    <path class="cls-1" d="M156.62,60.87c-.2-.4-1.01-.49-1.33-.36-.38.15-.79.44-1.41.88-.62.44-.71,1.54-.55,1.98.16.44.66.8,1.1.72.44-.08,1.3-.78,1.64-1.14.72-.77.86-1.45.55-2.08Z"/>
    <path class="cls-1" d="M160.14,82.35h-20.88c-1.31,11.74-4.9,19.57-11.09,23.32-6.03,3.58-11.9,5.21-17.28,4.9-6.68.15-12.88-2.13-18.42-6.36-5.7-4.41-8.97-11.91-10.11-21.85h-20.38c2.77,31.8,18.92,47.78,47.94,47.94,30.17-.33,46.96-16.31,50.23-47.94Z"/>
    <path class="cls-1" d="M94.91,14.35V0h-44.36v14.35h4.9c1.95.15,3.09,1.14,3.26,3.1v34.9h1.79V15.49c-.16-1.47-.82-2.28-2.28-2.45h-5.71V1.96h40.44v11.08h-6.69c-1.47.17-2.13.98-2.28,2.45v36.86h2.12V17.45c.16-1.96,1.46-2.95,3.42-3.1h5.38Z"/>
    <path class="cls-1" d="M86.26,11.41h5.06V3.58h-37.02v7.82h3.91c2.44.33,3.91,1.64,4.08,4.08v36.86h20.06V15.49c.33-2.45,1.64-3.75,3.92-4.08Z"/>
    <path class="cls-1" d="M59.68,57.24c-1.01,0-3.1.65-3.1.65-.65-.65-.78-.81-1.79-.82-2.09-.02-5.86,3.05-7.99,6.04-2.13,3-4.41,6.2-4.41,6.2,0,0-.45-.89-.81-.99-.36-.09-.6.23-.66.65-.06.43-.3,4.89-1.79,4.58-1.03-.21-1.58-2.36-.49-4.74,1.09-2.38,5.09-6.22,7.18-7.87,1.06-.83,1.57-2.88-.55-3.69-.98-.32-2.55.15-3.69,1.78-5.07,3.92-8.32,5.55-10.11,4.9,2.93-7.84,1.24-12.06-4.07-11.75-1.97.11-6.26,1-7.99,1.47-1.74.47-2.82.94-5.71.98-4.5.05-3.24-4.29,2.6-7.01,3.33-1.55,7.67-2.77,12.89-4.07,0,0,8.87-1.93,12-2.98,6.48-2.17,5.2-6.66,1.76-7.55-3.45-.9-10.82,2.38-12.29,3.68,0,0,5.77-1.8,8.32-2.11,2.55-.32,3.03,1.74,1.31,2.28-1.72.54-9.91,2.66-13.68,3.79-5.16,1.55-13.22,4.68-16.65,6.98-3.43,2.3-6.15,6.62-5.71,8.98.44,2.35,2.71,3.93,5.25,3.85,4.13-.13,15.74-4.62,17.91-4.67,2.18-.05,2.93,2.21,2.28,4.56-.65,2.36-1.8,4.4-1.8,4.4-5.56,3.01-11.12,6.24-13.07,7.57-1.95,1.33-5.57,3.67-10.57,7.93-4.77,4.07-5.11,10.02-3.02,13.35.94,1.49,2.61,2.08,4.95,2.09,2.34.01,7.21-2.56,11.12-6.49,2.77-2.93,6.37-8.98,8.47-13.04,2.1-4.06,4.89-9.46,4.89-9.46,0,0-.07.18,1.47.16,1.54-.02,3.42-.65,3.42-.65-3.64,9.68-2.12,12.01,2.74,10.6,2.09-.61,4.27-2.62,4.44-3.58,0,.49,1.42,1.52,2.18,1.67.65.12,1.12.07,1.98-.44,1.64-.98,2.03-2.07,1.22-2.06-2.24.03-1.82-3.2,1.14-7.01.95-1.23,4.57-4.4,4.9-4.23-1.8,1.95-3.13,5.41-3.59,8.16-.49,2.97.59,4.52,2.49,4.31,1.39-.16,1.87-2.52,1.27-4.31-.26-.78.92-3.08,2.93-5.38.77-.89,1.8-1.64,1.8-1.64,0,0-.27,1.55-.65,2.11-1.28,1.91-1.99,5.49-1.88,7.04.11,1.56.9,2.75,2.04,2.59,1.14,0,2.21-.75,1.8-2.11-.87-2.9,0-5.88,2.77-9.63,1.46-1.62,1.41-2.75.89-3.36-.53-.61-1.7-.87-2.03-.72-.65-.82-1.28-.98-2.29-.98ZM19.08,73.04c3.69-1.88,5.99-2.71,5.99-2.71,0,0-3.7,6.48-6.48,9.4-2.78,2.92-7.17,7-9.78,7-2.12,0-1.93-2.73.49-5.86,2.42-3.13,7.35-6.59,9.78-7.84Z"/>
    <path class="cls-1" d="M76.47,55.28c-.21.23-1.35,2.43-1.13,2.61.21.16.88-.11,1.3-.33.42-.22,2.44-1.3,2.44-1.3.17-.63-2.08-1.6-2.61-.98Z"/>
    <path class="cls-1" d="M71.26,58.71c-2.89.02-5.99,3.14-7.35,5.87-1.95,3.92-1.77,9.32,1.57,10.22,3.42.92,6.88-2.65,8.55-5.83.9-1.72,1.31-3.58,1.31-5.21,0,0,2.31-.8,2.93-.98.62-.18.92.47.73,1.36-.25,1.16-3.72,6.09-4.52,7.14-.89,1.18-2.38,3.85-.46,3.72,1.28-.08,2.05-1.76,2.62-2.61.56-.84,5.8-8.7,6.52-9.42.74-.75,1.54-1.56,1.96-1.67,1.72-.44,1.89.48.82,1.8-2,2.45-4.59,7-4.8,9.11-.19,1.94.57,2.79,1.7,2.64.43-.07.61-.11,1.27-.42,2.18-1.04,2.77-2.09,1.99-1.86-1.25.37-1.64-1.48-.98-2.78.66-1.3,4.21-6.53,4.89-7.5.68-.96.33-2.66-1.93-3.57-2.1-.83-4.92.3-5.9,1.12-.06-.52-1.63-1.47-2.28-.79-.69.72-2.52,1.51-3.59,1.61-1.08.09-1.79,0-1.79,0,0,0-.37-1.98-3.26-1.96ZM71.09,64.89c.25.03.33-.16.33-.16.65.65-.17,3.1-1.57,4.93-.98,1.26-2,2.05-2.8,1.9-1.12-.22-1.17-1.57-.85-2.92.32-1.35,1.47-4.25,2.61-5.54,0,0,2.03,1.76,2.28,1.79Z"/>
    <path class="cls-1" d="M48.69,53.3c.05-.36-.62-.7-1.4-1.13-.67-.36-1.22.52-1.33.74-.11.21-.64,1.26-.79,1.71-.16.44-.04,1.32.49,1.47.53.14,1.49-.23,1.96-.65.47-.42,1.02-1.81,1.08-2.14Z"/>
  </g>
</svg>